<svg width="25" height="24" viewBox="0 0 25 24" fill="none" xmlns="http://www.w3.org/2000/svg">
<path d="M12.3999 24C10.7399 24 9.1799 23.685 7.7199 23.055C6.2599 22.425 4.9899 21.57 3.9099 20.49C2.8299 19.41 1.9749 18.14 1.3449 16.68C0.714902 15.22 0.399902 13.66 0.399902 12C0.399902 10.34 0.714902 8.78 1.3449 7.32C1.9749 5.86 2.8299 4.59 3.9099 3.51C4.9899 2.43 6.2599 1.575 7.7199 0.945C9.1799 0.315 10.7399 0 12.3999 0C14.0599 0 15.6199 0.315 17.0799 0.945C18.5399 1.575 19.8099 2.43 20.8899 3.51C21.9699 4.59 22.8249 5.86 23.4549 7.32C24.0849 8.78 24.3999 10.34 24.3999 12V13.74C24.3999 14.92 23.9949 15.925 23.1849 16.755C22.3749 17.585 21.3799 18 20.1999 18C19.4999 18 18.8399 17.85 18.2199 17.55C17.5999 17.25 17.0799 16.82 16.6599 16.26C16.0799 16.84 15.4249 17.275 14.6949 17.565C13.9649 17.855 13.1999 18 12.3999 18C10.7399 18 9.3249 17.415 8.1549 16.245C6.9849 15.075 6.3999 13.66 6.3999 12C6.3999 10.34 6.9849 8.925 8.1549 7.755C9.3249 6.585 10.7399 6 12.3999 6C14.0599 6 15.4749 6.585 16.6449 7.755C17.8149 8.925 18.3999 10.34 18.3999 12V13.74C18.3999 14.26 18.5699 14.7 18.9099 15.06C19.2499 15.42 19.6799 15.6 20.1999 15.6C20.7199 15.6 21.1499 15.42 21.4899 15.06C21.8299 14.7 21.9999 14.26 21.9999 13.74V12C21.9999 9.32 21.0699 7.05 19.2099 5.19C17.3499 3.33 15.0799 2.4 12.3999 2.4C9.7199 2.4 7.4499 3.33 5.5899 5.19C3.7299 7.05 2.7999 9.32 2.7999 12C2.7999 14.68 3.7299 16.95 5.5899 18.81C7.4499 20.67 9.7199 21.6 12.3999 21.6H18.3999V24H12.3999ZM12.3999 15.6C13.3999 15.6 14.2499 15.25 14.9499 14.55C15.6499 13.85 15.9999 13 15.9999 12C15.9999 11 15.6499 10.15 14.9499 9.45C14.2499 8.75 13.3999 8.4 12.3999 8.4C11.3999 8.4 10.5499 8.75 9.8499 9.45C9.1499 10.15 8.7999 11 8.7999 12C8.7999 13 9.1499 13.85 9.8499 14.55C10.5499 15.25 11.3999 15.6 12.3999 15.6Z" fill="#161719"/>
</svg>
