<svg width="32" height="24" viewBox="0 0 32 24" fill="none" xmlns="http://www.w3.org/2000/svg">
<path d="M0.218262 6.96774V0H6.79891V6.96774H0.218262ZM8.34729 6.96774V0H14.9279V6.96774H8.34729ZM16.4763 6.96774V0H23.057V6.96774H16.4763ZM24.6054 6.96774V0H31.186V6.96774H24.6054ZM24.6054 15.4839V8.51613H31.186V15.4839H24.6054ZM16.4763 15.4839V8.51613H23.057V15.4839H16.4763ZM8.34729 15.4839V8.51613H14.9279V15.4839H8.34729ZM0.218262 15.4839V8.51613H6.79891V15.4839H0.218262ZM24.6054 24V17.0323H31.186V24H24.6054ZM16.4763 24V17.0323H23.057V24H16.4763ZM8.34729 24V17.0323H14.9279V24H8.34729ZM0.218262 24V17.0323H6.79891V24H0.218262Z" fill="#161719"/>
</svg>
