<svg width="22" height="24" viewBox="0 0 22 24" fill="none" xmlns="http://www.w3.org/2000/svg">
<path d="M3.14711 24C2.43997 24 1.83461 23.765 1.33104 23.295C0.827469 22.825 0.575684 22.26 0.575684 21.6V2.4C0.575684 1.74 0.827469 1.175 1.33104 0.705C1.83461 0.235 2.43997 0 3.14711 0H18.5757C19.2828 0 19.8882 0.235 20.3918 0.705C20.8953 1.175 21.1471 1.74 21.1471 2.4V21.6C21.1471 22.26 20.8953 22.825 20.3918 23.295C19.8882 23.765 19.2828 24 18.5757 24H3.14711ZM9.57568 10.8L12.79 9L16.0043 10.8V2.4H9.57568V10.8Z" fill="#161719"/>
</svg>
