<svg width="22" height="24" viewBox="0 0 22 24" fill="none" xmlns="http://www.w3.org/2000/svg">
<path d="M3.12288 24C2.25959 24 1.52328 23.693 0.913957 23.0791C0.304652 22.4653 0 21.7287 0 20.8695V5.25254C0 4.38715 0.304652 3.64905 0.913957 3.03826C1.52328 2.42746 2.25959 2.12206 3.12288 2.12206H3.38982V0H6.36094V2.12206H15.4572V0H18.4284V2.12206H18.6953C19.5586 2.12206 20.2949 2.42746 20.9042 3.03826C21.5135 3.64905 21.8182 4.38715 21.8182 5.25254V20.8695C21.8182 21.7287 21.5135 22.4653 20.9042 23.0792C20.2949 23.6931 19.5586 24 18.6953 24H3.12288V24ZM3.12288 20.8695H18.6953V9.31329H3.12288V20.8695ZM3.12288 6.48707H18.6953V5.25254H3.12288V6.48707Z" fill="#161719"/>
</svg>
