<svg width="25" height="24" viewBox="0 0 25 24" fill="none" xmlns="http://www.w3.org/2000/svg">
<path fill-rule="evenodd" clip-rule="evenodd" d="M23.4169 1.04545C22.0229 -0.348478 19.763 -0.34849 18.3691 1.04545L16.3704 3.04407L6.96394 12.4505C6.81146 12.6031 6.70329 12.7941 6.65099 13.0033L5.4612 17.7625C5.35983 18.168 5.47863 18.5969 5.77415 18.8923C6.06967 19.1879 6.49858 19.3067 6.90403 19.2054L11.6632 18.0156C11.8724 17.9632 12.0634 17.8551 12.2159 17.7025L21.554 8.3645L23.621 6.29746C25.015 4.90353 25.015 2.64351 23.621 1.24958L23.4169 1.04545ZM20.0517 2.72807C20.5163 2.26343 21.2696 2.26343 21.7343 2.72807L21.9384 2.9322C22.403 3.39686 22.403 4.1502 21.9384 4.61484L20.729 5.82429L18.8784 3.90135L20.0517 2.72807ZM17.1954 5.58428L19.046 7.50722L10.7664 15.787L8.25068 16.4159L8.87959 13.9002L17.1954 5.58428ZM3.04609 7.34291C3.04609 6.68581 3.57878 6.15311 4.23588 6.15311H10.1848C10.842 6.15311 11.3746 5.62043 11.3746 4.96332C11.3746 4.30622 10.842 3.77352 10.1848 3.77352H4.23588C2.26457 3.77352 0.666504 5.3716 0.666504 7.34291V20.4306C0.666504 22.402 2.26457 24 4.23588 24H17.3236C19.295 24 20.893 22.402 20.893 20.4306V14.4816C20.893 13.8246 20.3603 13.2918 19.7032 13.2918C19.046 13.2918 18.5134 13.8246 18.5134 14.4816V20.4306C18.5134 21.0877 17.9807 21.6204 17.3236 21.6204H4.23588C3.57878 21.6204 3.04609 21.0877 3.04609 20.4306V7.34291Z" fill="#161719"/>
</svg>
