<svg width="34" height="24" viewBox="0 0 34 24" fill="none" xmlns="http://www.w3.org/2000/svg">
<path d="M0.818359 24V19.8C0.818359 18.95 1.03711 18.1688 1.47461 17.4563C1.91211 16.7438 2.49336 16.2 3.21836 15.825C4.76836 15.05 6.34336 14.4688 7.94336 14.0813C9.54336 13.6938 11.1684 13.5 12.8184 13.5C14.4684 13.5 16.0934 13.6938 17.6934 14.0813C19.2934 14.4688 20.8684 15.05 22.4184 15.825C23.1434 16.2 23.7246 16.7438 24.1621 17.4563C24.5996 18.1688 24.8184 18.95 24.8184 19.8V24H0.818359ZM27.8184 24V19.5C27.8184 18.4 27.5121 17.3438 26.8996 16.3313C26.2871 15.3188 25.4184 14.45 24.2934 13.725C25.5684 13.875 26.7684 14.1313 27.8934 14.4938C29.0184 14.8563 30.0684 15.3 31.0434 15.825C31.9434 16.325 32.6309 16.8813 33.1059 17.4938C33.5809 18.1063 33.8184 18.775 33.8184 19.5V24H27.8184ZM12.8184 12C11.1684 12 9.75586 11.4125 8.58086 10.2375C7.40586 9.0625 6.81836 7.65 6.81836 6C6.81836 4.35 7.40586 2.9375 8.58086 1.7625C9.75586 0.5875 11.1684 0 12.8184 0C14.4684 0 15.8809 0.5875 17.0559 1.7625C18.2309 2.9375 18.8184 4.35 18.8184 6C18.8184 7.65 18.2309 9.0625 17.0559 10.2375C15.8809 11.4125 14.4684 12 12.8184 12ZM27.8184 6C27.8184 7.65 27.2309 9.0625 26.0559 10.2375C24.8809 11.4125 23.4684 12 21.8184 12C21.5434 12 21.1934 11.9688 20.7684 11.9062C20.3434 11.8438 19.9934 11.775 19.7184 11.7C20.3934 10.9 20.9121 10.0125 21.2746 9.0375C21.6371 8.0625 21.8184 7.05 21.8184 6C21.8184 4.95 21.6371 3.9375 21.2746 2.9625C20.9121 1.9875 20.3934 1.1 19.7184 0.3C20.0684 0.175 20.4184 0.09375 20.7684 0.05625C21.1184 0.01875 21.4684 0 21.8184 0C23.4684 0 24.8809 0.5875 26.0559 1.7625C27.2309 2.9375 27.8184 4.35 27.8184 6ZM3.81836 21H21.8184V19.8C21.8184 19.525 21.7496 19.275 21.6121 19.05C21.4746 18.825 21.2934 18.65 21.0684 18.525C19.7184 17.85 18.3559 17.3438 16.9809 17.0063C15.6059 16.6688 14.2184 16.5 12.8184 16.5C11.4184 16.5 10.0309 16.6688 8.65586 17.0063C7.28086 17.3438 5.91836 17.85 4.56836 18.525C4.34336 18.65 4.16211 18.825 4.02461 19.05C3.88711 19.275 3.81836 19.525 3.81836 19.8V21ZM12.8184 9C13.6434 9 14.3496 8.70625 14.9371 8.11875C15.5246 7.53125 15.8184 6.825 15.8184 6C15.8184 5.175 15.5246 4.46875 14.9371 3.88125C14.3496 3.29375 13.6434 3 12.8184 3C11.9934 3 11.2871 3.29375 10.6996 3.88125C10.1121 4.46875 9.81836 5.175 9.81836 6C9.81836 6.825 10.1121 7.53125 10.6996 8.11875C11.2871 8.70625 11.9934 9 12.8184 9Z" fill="#161719"/>
</svg>
