<svg width="31" height="24" viewBox="0 0 31 24" fill="none" xmlns="http://www.w3.org/2000/svg">
<path d="M11.3184 24H27.8184C28.6434 24 29.3496 23.7063 29.9371 23.1188C30.5246 22.5313 30.8184 21.825 30.8184 21V18H11.3184V24ZM0.818359 6H8.31836V0H3.81836C2.99336 0 2.28711 0.29375 1.69961 0.88125C1.11211 1.46875 0.818359 2.175 0.818359 3V6ZM0.818359 15H8.31836V9H0.818359V15ZM3.81836 24H8.31836V18H0.818359V21C0.818359 21.825 1.11211 22.5313 1.69961 23.1188C2.28711 23.7063 2.99336 24 3.81836 24ZM11.3184 15H30.8184V9H11.3184V15ZM11.3184 6H30.8184V3C30.8184 2.175 30.5246 1.46875 29.9371 0.88125C29.3496 0.29375 28.6434 0 27.8184 0H11.3184V6Z" fill="#161719"/>
</svg>
