<svg width="19" height="24" viewBox="0 0 19 24" fill="none" xmlns="http://www.w3.org/2000/svg">
<path d="M2.6499 24C2.03115 24 1.50146 23.7762 1.06084 23.3286C0.620215 22.881 0.399902 22.3429 0.399902 21.7143V10.2857C0.399902 9.65714 0.620215 9.11905 1.06084 8.67143C1.50146 8.22381 2.03115 8 2.6499 8H3.7749V5.71429C3.7749 4.13333 4.32334 2.78571 5.42021 1.67143C6.51709 0.557143 7.84365 0 9.3999 0C10.9562 0 12.2827 0.557143 13.3796 1.67143C14.4765 2.78571 15.0249 4.13333 15.0249 5.71429V8H16.1499C16.7687 8 17.2983 8.22381 17.739 8.67143C18.1796 9.11905 18.3999 9.65714 18.3999 10.2857V21.7143C18.3999 22.3429 18.1796 22.881 17.739 23.3286C17.2983 23.7762 16.7687 24 16.1499 24H2.6499ZM9.3999 18.2857C10.0187 18.2857 10.5483 18.0619 10.989 17.6143C11.4296 17.1667 11.6499 16.6286 11.6499 16C11.6499 15.3714 11.4296 14.8333 10.989 14.3857C10.5483 13.9381 10.0187 13.7143 9.3999 13.7143C8.78115 13.7143 8.25146 13.9381 7.81084 14.3857C7.37021 14.8333 7.1499 15.3714 7.1499 16C7.1499 16.6286 7.37021 17.1667 7.81084 17.6143C8.25146 18.0619 8.78115 18.2857 9.3999 18.2857ZM6.0249 8H12.7749V5.71429C12.7749 4.7619 12.4468 3.95238 11.7905 3.28571C11.1343 2.61905 10.3374 2.28571 9.3999 2.28571C8.4624 2.28571 7.66553 2.61905 7.00928 3.28571C6.35303 3.95238 6.0249 4.7619 6.0249 5.71429V8Z" fill="#161719"/>
</svg>
