<svg width="19" height="20" viewBox="0 0 19 20" fill="none" xmlns="http://www.w3.org/2000/svg">
<path d="M3.16956 19.4804C2.43114 19.4804 1.80486 19.2234 1.29073 18.7092C0.776598 18.1951 0.519531 17.5688 0.519531 16.8304V3.16956C0.519531 2.43114 0.776598 1.80487 1.29073 1.29073C1.80486 0.776599 2.43114 0.519531 3.16956 0.519531H8.78801C9.15614 0.519531 9.46901 0.648331 9.72661 0.905931C9.98422 1.16355 10.113 1.47641 10.113 1.84453C10.113 2.21266 9.98422 2.52553 9.72661 2.78313C9.46901 3.04075 9.15614 3.16956 8.78801 3.16956H3.16956V16.8304H8.78801C9.15614 16.8304 9.46901 16.9592 9.72661 17.2168C9.98422 17.4744 10.113 17.7873 10.113 18.1554C10.113 18.5235 9.98422 18.8364 9.72661 19.094C9.46901 19.3516 9.15614 19.4804 8.78801 19.4804H3.16956ZM14.4402 11.325H8.21196C7.84382 11.325 7.53096 11.1962 7.27336 10.9386C7.01574 10.681 6.88693 10.3681 6.88693 9.99998C6.88693 9.63187 7.01574 9.319 7.27336 9.06138C7.53096 8.80376 7.84382 8.67496 8.21196 8.67496H14.4402L12.8902 7.12498C12.6409 6.8757 12.5163 6.57062 12.5163 6.20976C12.5163 5.84887 12.6409 5.54017 12.8902 5.28366C13.1395 5.01771 13.4458 4.88292 13.8092 4.87931C14.1726 4.87567 14.4873 5.00683 14.7532 5.27278L18.5543 9.07388C18.8109 9.33983 18.9391 9.64853 18.9391 9.99998C18.9391 10.3514 18.8109 10.6601 18.5543 10.9261L14.7532 14.7272C14.4967 14.9931 14.1862 15.1243 13.8217 15.1207C13.4572 15.117 13.1467 14.9823 12.8902 14.7163C12.6409 14.4598 12.5181 14.1493 12.5217 13.7848C12.5253 13.4203 12.6518 13.1134 12.9011 12.8641L14.4402 11.325Z" fill="black"/>
</svg>
