<svg width="25" height="24" viewBox="0 0 25 24" fill="none" xmlns="http://www.w3.org/2000/svg">
<path d="M12.8184 0C6.19436 0 0.818359 5.376 0.818359 12C0.818359 18.624 6.19436 24 12.8184 24C19.4424 24 24.8184 18.624 24.8184 12C24.8184 5.376 19.4424 0 12.8184 0ZM13.8744 18.912V20.4H11.7744V18.852C10.8864 18.636 8.90636 17.928 8.15036 15.3L10.1304 14.496C10.2024 14.76 10.8264 17.004 13.0104 17.004C14.1264 17.004 15.3864 16.428 15.3864 15.072C15.3864 13.92 14.5464 13.32 12.6504 12.636C11.3304 12.168 8.63036 11.4 8.63036 8.664C8.63036 8.544 8.64236 5.784 11.7744 5.112V3.6H13.8744V5.088C16.0824 5.472 16.8864 7.236 17.0664 7.764L15.1704 8.568C15.0384 8.148 14.4624 6.96 12.8904 6.96C12.0504 6.96 10.7184 7.404 10.7184 8.628C10.7184 9.768 11.7504 10.2 13.8864 10.908C16.7664 11.904 17.4984 13.368 17.4984 15.048C17.4984 18.204 14.4984 18.804 13.8744 18.912Z" fill="#161719"/>
</svg>
