<svg width="25" height="24" viewBox="0 0 25 24" fill="none" xmlns="http://www.w3.org/2000/svg">
<path d="M11.3757 18H13.7757V13.2H18.5757V10.8H13.7757V6H11.3757V10.8H6.57568V13.2H11.3757V18ZM12.5757 24C10.9157 24 9.35568 23.685 7.89568 23.055C6.43568 22.425 5.16568 21.57 4.08568 20.49C3.00568 19.41 2.15068 18.14 1.52068 16.68C0.890684 15.22 0.575684 13.66 0.575684 12C0.575684 10.34 0.890684 8.78 1.52068 7.32C2.15068 5.86 3.00568 4.59 4.08568 3.51C5.16568 2.43 6.43568 1.575 7.89568 0.945C9.35568 0.315 10.9157 0 12.5757 0C14.2357 0 15.7957 0.315 17.2557 0.945C18.7157 1.575 19.9857 2.43 21.0657 3.51C22.1457 4.59 23.0007 5.86 23.6307 7.32C24.2607 8.78 24.5757 10.34 24.5757 12C24.5757 13.66 24.2607 15.22 23.6307 16.68C23.0007 18.14 22.1457 19.41 21.0657 20.49C19.9857 21.57 18.7157 22.425 17.2557 23.055C15.7957 23.685 14.2357 24 12.5757 24Z" fill="#161719"/>
</svg>
