<svg width="12" height="12" viewBox="0 0 12 12" fill="none" xmlns="http://www.w3.org/2000/svg">
<path d="M4.44101 11.127L4.22129 9.36657C4.12271 9.32812 4.02921 9.28172 3.94077 9.22736C3.85241 9.1731 3.76571 9.11542 3.68065 9.05433L2.06219 9.74417L0.5 7.00974L1.89873 5.93919C1.89198 5.88493 1.8886 5.83291 1.8886 5.78314V5.47077C1.8886 5.42099 1.89198 5.36898 1.89873 5.31471L0.5 4.24417L2.06219 1.5162L3.68705 2.20281C3.77211 2.14172 3.85944 2.08454 3.94903 2.03126C4.03872 1.97807 4.12947 1.93226 4.22129 1.8938L4.44101 0.126953H7.55899L7.77871 1.8938C7.87729 1.93226 7.97079 1.97807 8.05923 2.03126C8.14758 2.08454 8.23429 2.14172 8.31935 2.20281L9.93781 1.5162L11.5 4.24417L10.0981 5.31471C10.1048 5.36898 10.1082 5.42099 10.1082 5.47077V5.62695C10.1082 5.68122 10.1077 5.73328 10.1066 5.78314C10.1055 5.83291 10.0982 5.88493 10.0847 5.93919L11.4867 7.00974L9.92128 9.74417L8.31295 9.05433C8.22789 9.11542 8.14056 9.1731 8.05097 9.22736C7.96128 9.28172 7.87053 9.32812 7.77871 9.36657L7.55899 11.127H4.44101ZM6.01707 7.51361C6.5326 7.51361 6.97258 7.32943 7.337 6.96109C7.70143 6.59274 7.88364 6.14803 7.88364 5.62695C7.88364 5.10588 7.70143 4.66117 7.337 4.29282C6.97258 3.92447 6.5326 3.7403 6.01707 3.7403C5.49478 3.7403 5.05311 3.92447 4.69206 4.29282C4.33101 4.66117 4.15049 5.10588 4.15049 5.62695C4.15049 6.14803 4.33101 6.59274 4.69206 6.96109C5.05311 7.32943 5.49478 7.51361 6.01707 7.51361Z" fill="#575658"/>
</svg>
