<svg width="16" height="17" viewBox="0 0 16 17" fill="none" xmlns="http://www.w3.org/2000/svg">
<path d="M13 16.5C12.4477 16.5 12 16.0523 12 15.5V10.5C12 9.94772 12.4477 9.5 13 9.5H15C15.5523 9.5 16 9.94772 16 10.5V15.5C16 16.0523 15.5523 16.5 15 16.5H13ZM7 16.5C6.44772 16.5 6 16.0523 6 15.5V1.5C6 0.947715 6.44772 0.5 7 0.5H9C9.55228 0.5 10 0.947715 10 1.5V15.5C10 16.0523 9.55228 16.5 9 16.5H7ZM1 16.5C0.447715 16.5 0 16.0523 0 15.5V6.5C0 5.94772 0.447715 5.5 1 5.5H3C3.55228 5.5 4 5.94772 4 6.5V15.5C4 16.0523 3.55228 16.5 3 16.5H1Z" fill="#161719"/>
</svg>
