<svg width="25" height="24" viewBox="0 0 25 24" fill="none" xmlns="http://www.w3.org/2000/svg">
<path d="M12.3999 12C10.7499 12 9.3374 11.4125 8.1624 10.2375C6.9874 9.0625 6.3999 7.65 6.3999 6C6.3999 4.35 6.9874 2.9375 8.1624 1.7625C9.3374 0.5875 10.7499 0 12.3999 0C14.0499 0 15.4624 0.5875 16.6374 1.7625C17.8124 2.9375 18.3999 4.35 18.3999 6C18.3999 7.65 17.8124 9.0625 16.6374 10.2375C15.4624 11.4125 14.0499 12 12.3999 12ZM0.399902 21V19.8C0.399902 18.95 0.618652 18.1688 1.05615 17.4563C1.49365 16.7438 2.0749 16.2 2.7999 15.825C4.3499 15.05 5.9249 14.4688 7.5249 14.0813C9.1249 13.6938 10.7499 13.5 12.3999 13.5C14.0499 13.5 15.6749 13.6938 17.2749 14.0813C18.8749 14.4688 20.4499 15.05 21.9999 15.825C22.7249 16.2 23.3062 16.7438 23.7437 17.4563C24.1812 18.1688 24.3999 18.95 24.3999 19.8V21C24.3999 21.825 24.1062 22.5313 23.5187 23.1188C22.9312 23.7063 22.2249 24 21.3999 24H3.3999C2.5749 24 1.86865 23.7063 1.28115 23.1188C0.693652 22.5313 0.399902 21.825 0.399902 21Z" fill="#161719"/>
</svg>
