<svg width="23" height="24" viewBox="0 0 23 24" fill="none" xmlns="http://www.w3.org/2000/svg">
<path d="M0 24V19.6364H22.4V24H0ZM4.48 15.2727H6.048L14.784 6.79091L13.972 6L13.188 5.23636L4.48 13.7455V15.2727ZM2.24 17.4545V12.8182L14.784 0.627273C14.9893 0.427273 15.2273 0.272727 15.498 0.163636C15.7687 0.0545455 16.0533 0 16.352 0C16.6507 0 16.94 0.0545455 17.22 0.163636C17.5 0.272727 17.752 0.436364 17.976 0.654545L19.516 2.18182C19.74 2.38182 19.9033 2.61818 20.006 2.89091C20.1087 3.16364 20.16 3.44545 20.16 3.73636C20.16 4.00909 20.1087 4.27727 20.006 4.54091C19.9033 4.80455 19.74 5.04545 19.516 5.26364L7 17.4545H2.24ZM14.784 6.79091L13.972 6L13.188 5.23636L14.784 6.79091Z" fill="#161719"/>
</svg>
