<svg width="12" height="12" viewBox="0 0 12 12" fill="none" xmlns="http://www.w3.org/2000/svg">
<path d="M1.53661 12C1.1156 12 0.754223 11.8492 0.45246 11.5475C0.15082 11.2458 0 10.8844 0 10.4634C0 10.0423 0.15082 9.68174 0.45246 9.38181C0.754223 9.08201 1.1156 8.9321 1.53661 8.9321C1.95773 8.9321 2.31826 9.08201 2.61819 9.38181C2.91799 9.68174 3.0679 10.0423 3.0679 10.4634C3.0679 10.8844 2.91799 11.2458 2.61819 11.5475C2.31826 11.8492 1.95773 12 1.53661 12ZM6.00055 12C5.57955 12 5.2189 11.8492 4.9186 11.5475C4.61831 11.2458 4.46816 10.8844 4.46816 10.4634C4.46816 10.0423 4.61812 9.68174 4.91805 9.38181C5.21786 9.08201 5.57833 8.9321 5.99945 8.9321C6.42045 8.9321 6.7811 9.08201 7.0814 9.38181C7.38169 9.68174 7.53184 10.0423 7.53184 10.4634C7.53184 10.8844 7.38188 11.2458 7.08195 11.5475C6.78214 11.8492 6.42167 12 6.00055 12ZM10.4634 12C10.0423 12 9.68174 11.8492 9.38181 11.5475C9.08201 11.2458 8.9321 10.8844 8.9321 10.4634C8.9321 10.0423 9.08201 9.68174 9.38181 9.38181C9.68174 9.08201 10.0423 8.9321 10.4634 8.9321C10.8844 8.9321 11.2458 9.08201 11.5475 9.38181C11.8492 9.68174 12 10.0423 12 10.4634C12 10.8844 11.8492 11.2458 11.5475 11.5475C11.2458 11.8492 10.8844 12 10.4634 12ZM1.53661 7.53184C1.1156 7.53184 0.754223 7.38188 0.45246 7.08195C0.15082 6.78214 0 6.42167 0 6.00055C0 5.57955 0.15082 5.2189 0.45246 4.9186C0.754223 4.61831 1.1156 4.46816 1.53661 4.46816C1.95773 4.46816 2.31826 4.61812 2.61819 4.91805C2.91799 5.21786 3.0679 5.57833 3.0679 5.99945C3.0679 6.42045 2.91799 6.7811 2.61819 7.0814C2.31826 7.38169 1.95773 7.53184 1.53661 7.53184ZM6.00055 7.53184C5.57955 7.53184 5.2189 7.38188 4.9186 7.08195C4.61831 6.78214 4.46816 6.42167 4.46816 6.00055C4.46816 5.57955 4.61812 5.2189 4.91805 4.9186C5.21786 4.61831 5.57833 4.46816 5.99945 4.46816C6.42045 4.46816 6.7811 4.61812 7.0814 4.91805C7.38169 5.21786 7.53184 5.57833 7.53184 5.99945C7.53184 6.42045 7.38188 6.7811 7.08195 7.0814C6.78214 7.38169 6.42167 7.53184 6.00055 7.53184ZM10.4634 7.53184C10.0423 7.53184 9.68174 7.38188 9.38181 7.08195C9.08201 6.78214 8.9321 6.42167 8.9321 6.00055C8.9321 5.57955 9.08201 5.2189 9.38181 4.9186C9.68174 4.61831 10.0423 4.46816 10.4634 4.46816C10.8844 4.46816 11.2458 4.61812 11.5475 4.91805C11.8492 5.21786 12 5.57833 12 5.99945C12 6.42045 11.8492 6.7811 11.5475 7.0814C11.2458 7.38169 10.8844 7.53184 10.4634 7.53184ZM1.53661 3.0679C1.1156 3.0679 0.754223 2.91799 0.45246 2.61819C0.15082 2.31826 0 1.95773 0 1.53661C0 1.1156 0.15082 0.754223 0.45246 0.45246C0.754223 0.15082 1.1156 0 1.53661 0C1.95773 0 2.31826 0.15082 2.61819 0.45246C2.91799 0.754223 3.0679 1.1156 3.0679 1.53661C3.0679 1.95773 2.91799 2.31826 2.61819 2.61819C2.31826 2.91799 1.95773 3.0679 1.53661 3.0679ZM6.00055 3.0679C5.57955 3.0679 5.2189 2.91799 4.9186 2.61819C4.61831 2.31826 4.46816 1.95773 4.46816 1.53661C4.46816 1.1156 4.61812 0.754223 4.91805 0.45246C5.21786 0.15082 5.57833 0 5.99945 0C6.42045 0 6.7811 0.15082 7.0814 0.45246C7.38169 0.754223 7.53184 1.1156 7.53184 1.53661C7.53184 1.95773 7.38188 2.31826 7.08195 2.61819C6.78214 2.91799 6.42167 3.0679 6.00055 3.0679ZM10.4634 3.0679C10.0423 3.0679 9.68174 2.91799 9.38181 2.61819C9.08201 2.31826 8.9321 1.95773 8.9321 1.53661C8.9321 1.1156 9.08201 0.754223 9.38181 0.45246C9.68174 0.15082 10.0423 0 10.4634 0C10.8844 0 11.2458 0.15082 11.5475 0.45246C11.8492 0.754223 12 1.1156 12 1.53661C12 1.95773 11.8492 2.31826 11.5475 2.61819C11.2458 2.91799 10.8844 3.0679 10.4634 3.0679Z" fill="#939195"/>
</svg>
