<svg width="11" height="15" viewBox="0 0 11 15" fill="none" xmlns="http://www.w3.org/2000/svg">
<path d="M2.41871 14.2539C1.74925 14.2539 1.17879 14.0126 0.707342 13.5301C0.235781 13.0477 0 12.464 0 11.779V2.72885C0 2.04383 0.235781 1.46011 0.707342 0.977695C1.17879 0.495169 1.74925 0.253906 2.41871 0.253906H11V10.8236C10.7406 10.8236 10.5202 10.9165 10.3388 11.1023C10.1573 11.288 10.0665 11.5136 10.0665 11.779C10.0665 12.0442 10.1573 12.2698 10.3388 12.4556C10.5202 12.6413 10.7406 12.7341 11 12.7341V14.2539H2.41871ZM2.82618 9.29972H4.31143V1.77369H2.82618V9.29972ZM2.41871 12.7341H8.77104C8.71259 12.5848 8.66639 12.4327 8.63242 12.2779C8.59834 12.1232 8.58129 11.9564 8.58129 11.7776C8.58129 11.6092 8.59588 11.4453 8.62504 11.2859C8.65421 11.1265 8.70287 10.9724 8.77104 10.8236H2.41871C2.14907 10.8236 1.92608 10.9165 1.74975 11.1023C1.57342 11.288 1.48525 11.5136 1.48525 11.779C1.48525 12.0549 1.57342 12.283 1.74975 12.4635C1.92608 12.6439 2.14907 12.7341 2.41871 12.7341Z" fill="#575658"/>
</svg>
