<svg width="11" height="13" viewBox="0 0 11 13" fill="none" xmlns="http://www.w3.org/2000/svg">
<path d="M3.7695 1.47075V0.253906H7.2305V1.47075H3.7695ZM4.90795 7.68931H6.09205V4.33822H4.90795V7.68931ZM5.5 12.2539C4.81265 12.2539 4.16592 12.1189 3.55979 11.8488C2.95375 11.5787 2.424 11.2119 1.97054 10.7483C1.51717 10.2847 1.15873 9.74221 0.895241 9.12096C0.631747 8.4998 0.5 7.83697 0.5 7.13247C0.5 6.42787 0.631747 5.765 0.895241 5.14384C1.15873 4.52258 1.51717 3.97961 1.97054 3.51493C2.424 3.05015 2.95375 2.68272 3.55979 2.41265C4.16592 2.14268 4.81265 2.00769 5.5 2.00769C6.06574 2.00769 6.61097 2.1005 7.1357 2.28611C7.66051 2.47172 8.15038 2.74193 8.60529 3.09674L9.40487 2.2772L10.2402 3.13335L9.44059 3.95288C9.78685 4.41915 10.05 4.92068 10.23 5.45748C10.41 5.99428 10.5 6.55261 10.5 7.13247C10.5 7.83697 10.3683 8.4998 10.1048 9.12096C9.84127 9.74221 9.48283 10.2847 9.02946 10.7483C8.576 11.2119 8.04625 11.5787 7.44021 11.8488C6.83408 12.1189 6.18735 12.2539 5.5 12.2539Z" fill="#939195"/>
</svg>
