<svg width="14" height="14" viewBox="0 0 14 14" fill="none" xmlns="http://www.w3.org/2000/svg">
<path d="M4.91491 10.12C4.42052 10.12 4.00264 9.95421 3.66127 9.62262C3.31991 9.29103 3.14923 8.88511 3.14923 8.40487C3.14923 7.92463 3.31991 7.51871 3.66127 7.18712C4.00264 6.85553 4.42052 6.68973 4.91491 6.68973C5.4093 6.68973 5.82718 6.85553 6.16854 7.18712C6.50991 7.51871 6.68059 7.92463 6.68059 8.40487C6.68059 8.88511 6.50991 9.29103 6.16854 9.62262C5.82718 9.95421 5.4093 10.12 4.91491 10.12ZM2.10677 14C1.66205 14 1.28308 13.8479 0.969847 13.5436C0.656616 13.2393 0.5 12.8712 0.5 12.4392V2.93289C0.5 2.5009 0.656616 2.13278 0.969847 1.82851C1.28308 1.52424 1.66205 1.37211 2.10677 1.37211H2.76237V0H4.27202V1.37211H9.72798V0H11.2376V1.37211H11.8932C12.3379 1.37211 12.7169 1.52424 13.0302 1.82851C13.3434 2.13278 13.5 2.5009 13.5 2.93289V12.4392C13.5 12.8712 13.3434 13.2393 13.0302 13.5436C12.7169 13.8479 12.3379 14 11.8932 14H2.10677ZM2.10677 12.4392H11.8932V5.62789H2.10677V12.4392Z" fill="#939195"/>
</svg>
