<svg width="13" height="10" viewBox="0 0 13 10" fill="none" xmlns="http://www.w3.org/2000/svg">
<path d="M10.6592 0.872908C9.88109 0.521561 9.05996 0.271032 8.21634 0.127598C8.20866 0.126158 8.20072 0.127145 8.19364 0.130417C8.18657 0.133689 8.18073 0.139079 8.17696 0.145816C8.06495 0.345573 7.96325 0.550763 7.87225 0.760605C6.96294 0.62474 6.038 0.62474 5.12869 0.760605C5.03728 0.550242 4.93415 0.345 4.81976 0.145816C4.81583 0.13922 4.80997 0.133949 4.80294 0.130697C4.79591 0.127445 4.78805 0.126364 4.78038 0.127598C3.93701 0.270802 3.11615 0.521342 2.33848 0.872908C2.33178 0.875678 2.32613 0.880434 2.32231 0.886514C0.766646 3.17341 0.34052 5.40404 0.549598 7.60653C0.550195 7.61194 0.551894 7.61718 0.554592 7.62194C0.55729 7.62669 0.560932 7.63086 0.565303 7.6342C1.47119 8.2944 2.48451 8.79837 3.56201 9.12459C3.56961 9.12683 3.57773 9.12672 3.58527 9.12429C3.59281 9.12186 3.59942 9.11722 3.6042 9.11099C3.83556 8.80111 4.04056 8.47301 4.21714 8.13C4.21955 8.12529 4.22092 8.12014 4.22116 8.11487C4.2214 8.10961 4.2205 8.10435 4.21853 8.09945C4.21656 8.09455 4.21356 8.09012 4.20972 8.08644C4.20589 8.08276 4.20131 8.07993 4.19628 8.07811C3.87295 7.95661 3.55992 7.81011 3.26011 7.63997C3.25467 7.63682 3.2501 7.6324 3.24681 7.6271C3.24351 7.6218 3.2416 7.61579 3.24123 7.60959C3.24086 7.60339 3.24204 7.5972 3.24468 7.59155C3.24732 7.58591 3.25133 7.581 3.25636 7.57724C3.31918 7.53112 3.38223 7.4827 3.44224 7.43381C3.44756 7.4295 3.45401 7.42675 3.46084 7.42585C3.46767 7.42496 3.47462 7.42595 3.48091 7.42873C5.44488 8.31102 7.57129 8.31102 9.51206 7.42873C9.51839 7.42575 9.52546 7.4246 9.53243 7.42542C9.5394 7.42623 9.54599 7.42898 9.55144 7.43335C9.61144 7.482 9.67449 7.53089 9.73895 7.57724C9.744 7.58096 9.74805 7.58585 9.75073 7.59147C9.7534 7.59709 9.75463 7.60327 9.75431 7.60947C9.75399 7.61566 9.75212 7.62169 9.74887 7.62701C9.74561 7.63233 9.74108 7.63678 9.73567 7.63997C9.43626 7.81175 9.12262 7.95832 8.7981 8.07811C8.79304 8.07999 8.78845 8.0829 8.78461 8.08665C8.78078 8.09041 8.77781 8.09492 8.77588 8.09989C8.77395 8.10486 8.77312 8.11017 8.77343 8.11548C8.77375 8.12079 8.77521 8.12598 8.77771 8.13069C8.95723 8.47182 9.16193 8.79954 9.39018 9.11122C9.39481 9.11764 9.40138 9.12245 9.40895 9.12498C9.41653 9.1275 9.42473 9.12761 9.43237 9.12528C10.5113 8.80002 11.526 8.29599 12.4326 7.63489C12.437 7.63172 12.4407 7.62765 12.4434 7.62296C12.4461 7.61827 12.4478 7.61306 12.4483 7.60768C12.6986 5.0609 12.0292 2.84849 10.6739 0.887436C10.6709 0.881034 10.6657 0.875889 10.6592 0.872908ZM4.51013 6.26557C3.91875 6.26557 3.43192 5.73149 3.43192 5.07566C3.43192 4.41982 3.90961 3.88574 4.51013 3.88574C5.11556 3.88574 5.59818 4.42443 5.58833 5.07566C5.5888 5.73149 5.11087 6.26557 4.51013 6.26557ZM8.49784 6.26557C7.90647 6.26557 7.41964 5.73149 7.41964 5.07566C7.41964 4.41982 7.89733 3.88574 8.49784 3.88574C9.10328 3.88574 9.58589 4.42443 9.57605 5.07566C9.57628 5.73149 9.10328 6.26557 8.49784 6.26557Z" fill="#939195"/>
</svg>
