<svg width="15" height="12" viewBox="0 0 15 12" fill="none" xmlns="http://www.w3.org/2000/svg">
<path d="M1.9 11.5C1.515 11.5 1.18542 11.3654 0.91125 11.0961C0.637083 10.8268 0.5 10.5031 0.5 10.125V1.875C0.5 1.49688 0.637083 1.17318 0.91125 0.903906C1.18542 0.634635 1.515 0.5 1.9 0.5H13.1C13.485 0.5 13.8146 0.634635 14.0887 0.903906C14.3629 1.17318 14.5 1.49688 14.5 1.875V10.125C14.5 10.5031 14.3629 10.8268 14.0887 11.0961C13.8146 11.3654 13.485 11.5 13.1 11.5H1.9ZM7.5 6.6875L13.1 3.25V1.875L7.5 5.3125L1.9 1.875V3.25L7.5 6.6875Z" fill="#B6B4B7"/>
</svg>
