<svg width="14" height="14" viewBox="0 0 14 14" fill="none" xmlns="http://www.w3.org/2000/svg">
<path d="M7.00382 9.66022C7.72971 9.66022 8.34545 9.40121 8.85103 8.88318C9.35661 8.36517 9.60941 7.73614 9.60941 6.99611C9.60941 6.25608 9.35534 5.62835 8.84721 5.11293C8.33909 4.59749 7.72208 4.33978 6.99618 4.33978C6.27029 4.33978 5.65455 4.59879 5.14897 5.11682C4.64339 5.63483 4.39059 6.26386 4.39059 7.00389C4.39059 7.74392 4.64466 8.37165 5.15279 8.88707C5.66091 9.40251 6.27792 9.66022 7.00382 9.66022ZM6.99912 8.42421C6.6147 8.42421 6.28591 8.28467 6.01274 8.0056C5.73958 7.72651 5.603 7.39101 5.603 6.9991C5.603 6.6072 5.73987 6.272 6.01361 5.99352C6.28737 5.71503 6.61646 5.57579 7.00088 5.57579C7.3853 5.57579 7.71409 5.71533 7.98726 5.9944C8.26042 6.27349 8.397 6.60899 8.397 7.0009C8.397 7.3928 8.26013 7.728 7.98639 8.00648C7.71263 8.28497 7.38354 8.42421 6.99912 8.42421ZM7 12C5.45331 12 4.05049 11.5371 2.79152 10.6114C1.53255 9.68565 0.602041 8.48185 0 7C0.602041 5.51815 1.53255 4.31435 2.79152 3.38861C4.05049 2.46287 5.45331 2 7 2C8.54669 2 9.94951 2.46287 11.2085 3.38861C12.4675 4.31435 13.398 5.51815 14 7C13.398 8.48185 12.4675 9.68565 11.2085 10.6114C9.94951 11.5371 8.54669 12 7 12Z" fill="#1E1E1E" fill-opacity="0.5"/>
</svg>
