<svg width="14" height="14" viewBox="0 0 14 14" fill="none" xmlns="http://www.w3.org/2000/svg">
<path d="M11.9636 13.5L9.29091 10.7753C8.9197 10.8956 8.54583 10.9859 8.16932 11.0461C7.7928 11.1063 7.40303 11.1364 7 11.1364C5.39848 11.1364 3.97197 10.6795 2.72045 9.76578C1.46894 8.85206 0.562121 7.66751 0 6.21212C0.222727 5.63215 0.503788 5.09322 0.843182 4.59533C1.18258 4.09743 1.5697 3.65152 2.00455 3.25758L0.254545 1.41919L1.14545 0.5L12.8545 12.5808L11.9636 13.5ZM7 9.16667C7.11667 9.16667 7.22538 9.1612 7.32614 9.15025C7.42689 9.13931 7.53561 9.11742 7.65227 9.0846L4.21591 5.53914C4.18409 5.65951 4.16288 5.77168 4.15227 5.87563C4.14167 5.97959 4.13636 6.09175 4.13636 6.21212C4.13636 7.03283 4.41477 7.73043 4.97159 8.30492C5.52841 8.87942 6.20455 9.16667 7 9.16667ZM11.6455 9.46212L9.625 7.39394C9.69924 7.20791 9.75758 7.01915 9.8 6.82765C9.84242 6.63615 9.86364 6.43098 9.86364 6.21212C9.86364 5.39141 9.58523 4.69381 9.02841 4.11932C8.47159 3.54482 7.79545 3.25758 7 3.25758C6.78788 3.25758 6.58902 3.27946 6.40341 3.32323C6.2178 3.367 6.03485 3.43266 5.85455 3.5202L4.23182 1.84596C4.66667 1.65993 5.11212 1.52041 5.56818 1.4274C6.02424 1.33439 6.50152 1.28788 7 1.28788C8.60151 1.28788 10.028 1.74474 11.2795 2.65846C12.5311 3.57218 13.4379 4.75673 14 6.21212C13.7561 6.85774 13.4352 7.45686 13.0375 8.00947C12.6398 8.56208 12.1758 9.0463 11.6455 9.46212ZM8.70227 6.44192L6.79318 4.47222C7.09015 4.41751 7.36326 4.44213 7.6125 4.54609C7.86174 4.65004 8.07652 4.80051 8.25682 4.99747C8.43712 5.19444 8.56705 5.42151 8.64659 5.67866C8.72614 5.93582 8.7447 6.19024 8.70227 6.44192Z" fill="#1E1E1E" fill-opacity="0.5"/>
</svg>
