<svg width="12" height="12" viewBox="0 0 12 12" fill="none" xmlns="http://www.w3.org/2000/svg">
<path d="M0.63533 3.33949C1.01521 2.56585 1.55196 1.91196 2.22839 1.36826C3.14502 0.628151 4.19644 0.182649 5.37531 0.0461247C6.76005 -0.114352 8.06146 0.141931 9.26484 0.846112C9.56384 1.02096 9.84324 1.21976 10.1104 1.43532C10.1766 1.48802 10.1692 1.51916 10.1128 1.57185C9.5663 2.10358 9.01975 2.63531 8.47811 3.17182C8.41439 3.2341 8.38008 3.22931 8.31145 3.17901C6.72329 1.98382 4.40722 2.30717 3.22345 3.88798C3.01512 4.16582 2.84601 4.46522 2.72837 4.79096C2.71857 4.8197 2.69896 4.84605 2.68426 4.87479C2.36809 4.64006 2.04948 4.40534 1.73577 4.16822C1.36814 3.89277 1.00051 3.61733 0.63533 3.33949Z" fill="#E94335"/>
<path d="M2.68426 7.12146C2.78964 7.349 2.87787 7.58612 3.01022 7.7993C3.56657 8.6903 4.36065 9.26274 5.40717 9.46634C6.35076 9.65076 7.25758 9.52621 8.10313 9.06395C8.13254 9.04957 8.16195 9.0352 8.18891 9.02083C8.20361 9.0352 8.21587 9.05197 8.23057 9.06395C8.8629 9.54298 9.49767 10.022 10.13 10.501C9.82609 10.7957 9.48051 11.0328 9.11288 11.2388C8.04676 11.8328 6.8924 12.0723 5.67677 11.9813C4.16213 11.8663 2.85582 11.2819 1.77743 10.228C1.30442 9.76573 0.914729 9.24358 0.632879 8.64719C0.895122 8.45078 1.15737 8.25677 1.41961 8.06037C1.84116 7.7466 2.26271 7.43523 2.68426 7.12146Z" fill="#34A853"/>
<path d="M10.1324 10.501C9.50012 10.022 8.86535 9.54298 8.23302 9.06395C8.21832 9.05197 8.20361 9.0352 8.19136 9.02083C8.40948 8.85557 8.63251 8.69509 8.81143 8.48431C9.11043 8.13462 9.30895 7.73942 9.41189 7.29631C9.42414 7.24122 9.41434 7.22206 9.35797 7.22445C9.32856 7.22685 9.3016 7.22445 9.27219 7.22445C8.27224 7.22445 7.26983 7.22206 6.26988 7.22685C6.15959 7.22685 6.13508 7.19811 6.13753 7.09512C6.14243 6.40052 6.14243 5.70592 6.13753 5.01132C6.13753 4.92269 6.16204 4.89874 6.25272 4.89874C8.08597 4.90114 9.91922 4.90114 11.7549 4.89874C11.8333 4.89874 11.8652 4.9179 11.8848 4.99934C12.0343 5.65801 12.0245 6.31908 11.9338 6.98494C11.8603 7.51667 11.728 8.03163 11.5245 8.52982C11.2231 9.26514 10.7795 9.90705 10.1962 10.4579C10.1741 10.4747 10.1521 10.4867 10.1324 10.501Z" fill="#4285F3"/>
<path d="M2.68426 7.12146C2.26271 7.43523 1.84116 7.7466 1.41961 8.06037C1.15737 8.25438 0.895122 8.45078 0.632879 8.64719C0.429457 8.27833 0.29711 7.88792 0.189272 7.48553C-0.0166007 6.7071 -0.048462 5.91669 0.064278 5.12389C0.152509 4.50114 0.336324 3.90235 0.632879 3.34188C1.00051 3.61733 1.36569 3.89517 1.73332 4.17061C2.04948 4.40773 2.36564 4.64246 2.68181 4.87719C2.62789 5.13347 2.55191 5.38496 2.5274 5.64843C2.48329 6.12747 2.52985 6.59452 2.66955 7.0544C2.67935 7.07356 2.68181 7.09751 2.68426 7.12146Z" fill="#FABB06"/>
</svg>
