<svg width="18" height="19" viewBox="0 0 18 19" fill="none" xmlns="http://www.w3.org/2000/svg">
<path d="M8.97253 18.2544C6.6617 18.2544 4.64889 17.4902 2.93412 15.9619C1.21934 14.4336 0.241301 12.5237 0 10.2323H2.27471C2.50751 11.9078 3.25773 13.2929 4.52538 14.3877C5.79319 15.4823 7.27558 16.0296 8.97253 16.0296C10.8658 16.0296 12.4718 15.3723 13.7905 14.0577C15.1091 12.7429 15.7685 11.1418 15.7685 9.25439C15.7685 7.36702 15.1091 5.76593 13.7905 4.45112C12.4718 3.13647 10.8658 2.47915 8.97253 2.47915C7.89142 2.47915 6.87602 2.72339 5.92635 3.21186C4.97684 3.70016 4.17275 4.37729 3.51407 5.24323H6.04749V7.29856H0.00367841V1.28487H2.05351V3.49521C2.9069 2.45992 3.93627 1.66096 5.14163 1.09834C6.34716 0.535709 7.62412 0.254395 8.97253 0.254395C10.2222 0.254395 11.3951 0.491538 12.4913 0.965827C13.5876 1.44012 14.5419 2.0822 15.3543 2.89208C16.1668 3.70212 16.8108 4.65355 17.2864 5.74637C17.7621 6.83935 18 8.00869 18 9.25439C18 10.5001 17.7621 11.6694 17.2864 12.7624C16.8108 13.8552 16.1668 14.8067 15.3543 15.6167C14.5419 16.4266 13.5876 17.0687 12.4913 17.543C11.3951 18.0173 10.2222 18.2544 8.97253 18.2544ZM11.6899 13.4083L7.96245 9.69226V4.36482H10.012V8.86323L13.1335 11.9691L11.6899 13.4083Z" fill="#373638"/>
</svg>
