<svg width="13" height="12" viewBox="0 0 13 12" fill="none" xmlns="http://www.w3.org/2000/svg">
<path d="M4.51729 10.4829V8.72618H13V10.4829H4.51729ZM4.51729 6.50543V4.74872H13V6.50543H4.51729ZM4.51729 2.52797V0.771258H13V2.52797H4.51729ZM1.57113 11.1271C1.1378 11.1271 0.767611 10.9778 0.460566 10.6791C0.153522 10.3806 0 10.0216 0 9.60222C0 9.18293 0.154264 8.82473 0.462793 8.52764C0.771436 8.23054 1.14242 8.082 1.57576 8.082C2.00909 8.082 2.37934 8.23132 2.6865 8.52996C2.99354 8.82849 3.14706 9.18746 3.14706 9.60686C3.14706 10.0261 2.99274 10.3843 2.6841 10.6814C2.37545 10.9785 2.00447 11.1271 1.57113 11.1271ZM1.57113 7.14961C1.1378 7.14961 0.767611 7.00029 0.460566 6.70165C0.153522 6.40312 0 6.04416 0 5.62475C0 5.20546 0.154264 4.84727 0.462793 4.55018C0.771436 4.25308 1.14242 4.10454 1.57576 4.10454C2.00909 4.10454 2.37934 4.25386 2.6865 4.5525C2.99354 4.85103 3.14706 5.20999 3.14706 5.6294C3.14706 6.04869 2.99274 6.40688 2.6841 6.70397C2.37545 7.00107 2.00447 7.14961 1.57113 7.14961ZM1.57113 3.17215C1.1378 3.17215 0.767611 3.02283 0.460566 2.72419C0.153522 2.42566 0 2.06669 0 1.64729C0 1.228 0.154264 0.869811 0.462793 0.572717C0.771436 0.275623 1.14242 0.127075 1.57576 0.127075C2.00909 0.127075 2.37934 0.276395 2.6865 0.575036C2.99354 0.873567 3.14706 1.23253 3.14706 1.65193C3.14706 2.07123 2.99274 2.42942 2.6841 2.72651C2.37545 3.02361 2.00447 3.17215 1.57113 3.17215Z" fill="#AFADB0"/>
</svg>
