<svg width="12" height="12" viewBox="0 0 12 12" fill="none" xmlns="http://www.w3.org/2000/svg">
<path d="M5.99736 12C4.33142 12 2.9154 11.4169 1.74931 10.2507C0.583102 9.0846 0 7.66858 0 6.00264C0 4.33681 0.583157 2.91991 1.74947 1.75195C2.91578 0.583982 4.33197 0 5.99802 0C6.14407 0 6.28869 0.0048391 6.43188 0.0145171C6.57518 0.0241952 6.71568 0.0400321 6.85337 0.0620276C6.43403 0.391521 6.09815 0.804763 5.84576 1.30175C5.59347 1.79863 5.46732 2.33351 5.46732 2.90638C5.46732 3.91477 5.82101 4.77193 6.52839 5.47788C7.23587 6.18372 8.09491 6.53664 9.10549 6.53664C9.68409 6.53664 10.2197 6.41115 10.7124 6.16018C11.2052 5.9091 11.615 5.57389 11.9418 5.15455C11.9612 5.29224 11.9758 5.43097 11.9855 5.57076C11.9952 5.71065 12 5.85307 12 5.99802C12 7.66352 11.416 9.0802 10.2481 10.2481C9.08009 11.416 7.66319 12 5.99736 12Z" fill="#373638"/>
</svg>
