<svg width="20" height="15" viewBox="0 0 20 15" fill="none" xmlns="http://www.w3.org/2000/svg">
<path d="M4.73422 13.1782C3.13345 13.1039 1.94422 12.7733 1.16653 12.1863C0.388845 11.5991 0 10.744 0 9.62086C0 8.6223 0.382557 7.80977 1.14767 7.18326C1.91278 6.5569 2.99837 6.15917 4.40443 5.99007C5.01718 5.91198 5.44817 5.81919 5.69737 5.7117C5.94658 5.60421 6.07118 5.44944 6.07118 5.24738C6.07118 4.92849 5.84973 4.67885 5.40682 4.49847C4.96406 4.31808 4.26349 4.18751 3.30511 4.10675L3.49375 1.88471C5.08874 2.02026 6.2797 2.3661 7.06664 2.92224C7.85344 3.47823 8.24684 4.25328 8.24684 5.24738C8.24684 6.05101 7.95224 6.70276 7.36305 7.20263C6.77385 7.70265 5.90864 8.03076 4.7674 8.18694C3.9076 8.30318 3.26073 8.48179 2.82679 8.72274C2.3927 8.96384 2.17565 9.26745 2.17565 9.63356C2.17565 10.0524 2.38619 10.3643 2.80727 10.5693C3.2285 10.7742 3.90384 10.8989 4.83331 10.9434L4.73422 13.1782ZM12.0858 12.4219L8.16488 8.39516L15.5474 0.800194C15.9019 0.436164 16.3228 0.25415 16.8102 0.25415C17.2977 0.25415 17.7186 0.436164 18.073 0.800194L19.4683 2.23323C19.8228 2.59726 20 3.03166 20 3.53643C20 4.0412 19.8228 4.4756 19.4683 4.83963L12.0858 12.4219ZM7.51721 14.2326C7.1898 14.3003 6.90352 14.2084 6.65836 13.9567C6.41334 13.7049 6.32379 13.4109 6.38971 13.0746L7.09873 9.53557L10.9535 13.4948L7.51721 14.2326Z" fill="#373638"/>
</svg>
