<svg width="13" height="13" viewBox="0 0 13 13" fill="none" xmlns="http://www.w3.org/2000/svg">
<path d="M6.5 12.627C5.68036 12.627 4.90565 12.4691 4.17589 12.1533C3.44622 11.8376 2.80902 11.4074 2.26429 10.8627C1.71956 10.3179 1.28936 9.68069 0.973673 8.95092C0.657891 8.22115 0.5 7.44645 0.5 6.62681C0.5 5.79707 0.661615 5.01742 0.984845 4.28785C1.30808 3.55837 1.74691 2.92313 2.30134 2.38213C2.85587 1.84122 3.50272 1.41347 4.2419 1.09886C4.98097 0.784256 5.77004 0.626953 6.60908 0.626953C7.40824 0.626953 8.16334 0.764654 8.87439 1.04006C9.58554 1.31546 10.2097 1.69607 10.7469 2.1819C11.2842 2.66782 11.7106 3.24333 12.0263 3.90841C12.3421 4.57349 12.5 5.2911 12.5 6.06125C12.5 7.20246 12.1552 8.09198 11.4656 8.72981C10.776 9.36775 9.92597 9.68671 8.91541 9.68671H7.90837C7.82958 9.68671 7.77361 9.70886 7.74049 9.75316C7.70736 9.79746 7.6908 9.84784 7.6908 9.90429C7.6908 10.0173 7.7573 10.17 7.89029 10.3624C8.02319 10.5548 8.08964 10.7872 8.08964 11.0597C8.08964 11.5684 7.94199 11.9568 7.64669 12.2249C7.3514 12.4929 6.96916 12.627 6.5 12.627ZM3.30793 7.215C3.56275 7.215 3.77347 7.13169 3.94008 6.96508C4.10669 6.79847 4.19 6.58775 4.19 6.33293C4.19 6.07811 4.10669 5.86739 3.94008 5.70078C3.77347 5.53416 3.56275 5.45086 3.30793 5.45086C3.05311 5.45086 2.84239 5.53416 2.67578 5.70078C2.50916 5.86739 2.42586 6.07811 2.42586 6.33293C2.42586 6.58775 2.50916 6.79847 2.67578 6.96508C2.84239 7.13169 3.05311 7.215 3.30793 7.215ZM5.0509 4.89442C5.30572 4.89442 5.51644 4.81111 5.68305 4.6445C5.84967 4.47788 5.93297 4.26717 5.93297 4.01235C5.93297 3.75752 5.84967 3.54681 5.68305 3.38019C5.51644 3.21358 5.30572 3.13027 5.0509 3.13027C4.79608 3.13027 4.58536 3.21358 4.41875 3.38019C4.25214 3.54681 4.16883 3.75752 4.16883 4.01235C4.16883 4.26717 4.25214 4.47788 4.41875 4.6445C4.58536 4.81111 4.79608 4.89442 5.0509 4.89442ZM7.9491 4.89442C8.20392 4.89442 8.41464 4.81111 8.58125 4.6445C8.74786 4.47788 8.83117 4.26717 8.83117 4.01235C8.83117 3.75752 8.74786 3.54681 8.58125 3.38019C8.41464 3.21358 8.20392 3.13027 7.9491 3.13027C7.69428 3.13027 7.48356 3.21358 7.31695 3.38019C7.15033 3.54681 7.06703 3.75752 7.06703 4.01235C7.06703 4.26717 7.15033 4.47788 7.31695 4.6445C7.48356 4.81111 7.69428 4.89442 7.9491 4.89442ZM9.68149 7.215C9.93631 7.215 10.147 7.13169 10.3136 6.96508C10.4803 6.79847 10.5636 6.58775 10.5636 6.33293C10.5636 6.07811 10.4803 5.86739 10.3136 5.70078C10.147 5.53416 9.93631 5.45086 9.68149 5.45086C9.42667 5.45086 9.21595 5.53416 9.04933 5.70078C8.88272 5.86739 8.79941 6.07811 8.79941 6.33293C8.79941 6.58775 8.88272 6.79847 9.04933 6.96508C9.21595 7.13169 9.42667 7.215 9.68149 7.215Z" fill="#939195"/>
</svg>
