<svg width="11" height="16" viewBox="0 0 11 16" fill="none" xmlns="http://www.w3.org/2000/svg">
<path d="M1.375 15.5C0.996875 15.5 0.673177 15.3601 0.403906 15.0804C0.134635 14.8006 0 14.4643 0 14.0714V6.92857C0 6.53571 0.134635 6.19941 0.403906 5.91964C0.673177 5.63988 0.996875 5.5 1.375 5.5H2.0625V4.07143C2.0625 3.08333 2.39766 2.24107 3.06797 1.54464C3.73828 0.848214 4.54896 0.5 5.5 0.5C6.45104 0.5 7.26172 0.848214 7.93203 1.54464C8.60234 2.24107 8.9375 3.08333 8.9375 4.07143V5.5H9.625C10.0031 5.5 10.3268 5.63988 10.5961 5.91964C10.8654 6.19941 11 6.53571 11 6.92857V14.0714C11 14.4643 10.8654 14.8006 10.5961 15.0804C10.3268 15.3601 10.0031 15.5 9.625 15.5H1.375ZM5.5 11.9286C5.87813 11.9286 6.20182 11.7887 6.47109 11.5089C6.74036 11.2292 6.875 10.8929 6.875 10.5C6.875 10.1071 6.74036 9.77083 6.47109 9.49107C6.20182 9.21131 5.87813 9.07143 5.5 9.07143C5.12188 9.07143 4.79818 9.21131 4.52891 9.49107C4.25964 9.77083 4.125 10.1071 4.125 10.5C4.125 10.8929 4.25964 11.2292 4.52891 11.5089C4.79818 11.7887 5.12188 11.9286 5.5 11.9286ZM3.4375 5.5H7.5625V4.07143C7.5625 3.47619 7.36198 2.97024 6.96094 2.55357C6.5599 2.1369 6.07292 1.92857 5.5 1.92857C4.92708 1.92857 4.4401 2.1369 4.03906 2.55357C3.63802 2.97024 3.4375 3.47619 3.4375 4.07143V5.5Z" fill="#B6B4B7"/>
</svg>
