<svg width="11" height="12" viewBox="0 0 11 12" fill="none" xmlns="http://www.w3.org/2000/svg">
<path d="M1.03275 8.58672L0 7.82596L2.59444 3.55903L3.91475 5.1391L5.7022 2.15591L7.20282 4.47269C6.97321 4.49489 6.75475 4.54191 6.54742 4.61377C6.34009 4.68562 6.1427 4.7823 5.95525 4.90381L5.74511 4.58047L4.08773 7.34761L2.75553 5.76223L1.03275 8.58672ZM10.0906 11.1271L8.56748 9.55772C8.4072 9.65424 8.23569 9.72663 8.05297 9.77489C7.87025 9.82315 7.68147 9.84728 7.48665 9.84728C6.85841 9.84728 6.32374 9.62103 5.88264 9.16853C5.44146 8.71595 5.22086 8.16743 5.22086 7.52297C5.22086 6.87851 5.44146 6.32884 5.88264 5.87396C6.32374 5.41916 6.85841 5.19176 7.48665 5.19176C8.11488 5.19176 8.64959 5.41916 9.09077 5.87396C9.53187 6.32884 9.75243 6.87851 9.75243 7.52297C9.75243 7.72283 9.72778 7.91763 9.6785 8.10738C9.62921 8.29721 9.55752 8.4761 9.46343 8.64406L11 10.1942L10.0906 11.1271ZM7.48665 8.5401C7.76434 8.5401 7.99903 8.44182 8.19073 8.24525C8.38235 8.0486 8.47816 7.80784 8.47816 7.52297C8.47816 7.23811 8.38235 6.9962 8.19073 6.79724C7.99903 6.59837 7.76434 6.49894 7.48665 6.49894C7.20895 6.49894 6.97313 6.59837 6.77919 6.79724C6.58533 6.9962 6.48839 7.23811 6.48839 7.52297C6.48839 7.80784 6.58533 8.0486 6.77919 8.24525C6.97313 8.44182 7.20895 8.5401 7.48665 8.5401ZM8.67892 4.72636C8.46775 4.63272 8.25168 4.56535 8.03073 4.52424C7.80986 4.48313 7.58181 4.46776 7.3466 4.47812L9.97398 0.127075L11 0.894856L8.67892 4.72636Z" fill="#AFADB0"/>
</svg>
