<svg width="21" height="21" viewBox="0 0 21 21" fill="none" xmlns="http://www.w3.org/2000/svg">
<path d="M10.5 10.6232C9.08613 10.6232 7.87868 10.1347 6.87766 9.1575C5.87663 8.18034 5.37612 7.00168 5.37612 5.62152C5.37612 4.24156 5.87663 3.0641 6.87766 2.08912C7.87868 1.11434 9.08613 0.626953 10.5 0.626953C11.9139 0.626953 13.1213 1.11434 14.1223 2.08912C15.1234 3.0641 15.6239 4.24156 15.6239 5.62152C15.6239 7.00168 15.1234 8.18034 14.1223 9.1575C13.1213 10.1347 11.9139 10.6232 10.5 10.6232ZM0.5 20.627V17.0389C0.5 16.3204 0.690372 15.66 1.07112 15.0579C1.45186 14.4556 1.95776 13.996 2.58881 13.6791C3.8631 13.0595 5.16004 12.5936 6.47964 12.2814C7.79904 11.9693 9.13916 11.8132 10.5 11.8132C11.87 11.8132 13.2149 11.9681 14.5347 12.2779C15.8545 12.5877 17.1467 13.0523 18.4112 13.6719C19.0422 13.9883 19.5481 14.4469 19.9289 15.0478C20.3096 15.6487 20.5 16.3122 20.5 17.0383V20.627H0.5Z" fill="#373638"/>
</svg>
