<svg width="16" height="15" viewBox="0 0 16 15" fill="none" xmlns="http://www.w3.org/2000/svg">
<path d="M9.6 2.12695V4.29883C10.0381 3.90993 10.608 3.6929 11.2 3.68945V6.0332H13.6C13.5975 6.48458 13.4616 6.92565 13.2087 7.30343C12.9557 7.68121 12.5964 7.97961 12.174 8.16278C11.7515 8.34595 11.2839 8.40609 10.8273 8.33599C10.3707 8.26588 9.94451 8.06851 9.6 7.76758V9.1582H14.4V9.93945H9.6V10.7207H14.4V11.502H9.6V13.0645H16V2.12695H9.6ZM12 5.25195V2.9082C12.6365 2.9082 13.247 3.15513 13.6971 3.59467C14.1471 4.03421 14.4 4.63035 14.4 5.25195H12Z" fill="#575658"/>
<path d="M0 1.9707V13.2285L9.6 14.627V0.626953L0 1.9707ZM6.08 8.07227C5.51606 8.51128 4.79667 8.71361 4.08 8.63477H3.368V11.2441L2.248 11.1035V4.38477L4.216 4.1582C4.54606 4.08842 4.88722 4.08499 5.21868 4.14812C5.55014 4.21124 5.86498 4.33961 6.144 4.52539C6.37214 4.74436 6.54784 5.00992 6.65849 5.30303C6.76914 5.59613 6.812 5.90951 6.784 6.2207C6.81171 6.56077 6.76307 6.90264 6.64147 7.22244C6.51988 7.54224 6.32826 7.83227 6.08 8.07227Z" fill="#575658"/>
<path d="M4.144 5.14258L3.344 5.20508V7.6582H4C4.44655 7.69696 4.89309 7.5838 5.264 7.33789C5.39507 7.20125 5.49325 7.03777 5.55137 6.85936C5.6095 6.68095 5.62612 6.49212 5.6 6.30664C5.61578 6.13402 5.59162 5.96014 5.5293 5.79786C5.46699 5.63559 5.36812 5.48907 5.24 5.36914C4.91629 5.163 4.52548 5.08221 4.144 5.14258Z" fill="#575658"/>
</svg>
