<svg width="10" height="13" viewBox="0 0 10 13" fill="none" xmlns="http://www.w3.org/2000/svg">
<path d="M1.76095 12.627V10.6868H0.5V9.2036H1.76095V7.97762H0.5V6.49445H1.76095V0.626953H5.94571C6.93503 0.626953 7.77476 0.983729 8.46492 1.69728C9.15497 2.41094 9.5 3.27928 9.5 4.30229C9.5 5.32529 9.15497 6.19363 8.46492 6.90729C7.77476 7.62084 6.93503 7.97762 5.94571 7.97762H3.19527V9.2036H5.71716V10.6868H3.19527V12.627H1.76095ZM3.19527 6.49445H5.94571C6.53257 6.49445 7.03259 6.28077 7.44576 5.85342C7.85904 5.42618 8.06567 4.90914 8.06567 4.30229C8.06567 3.69543 7.85904 3.17839 7.44576 2.75115C7.03259 2.3238 6.53257 2.11012 5.94571 2.11012H3.19527V6.49445Z" fill="#373638"/>
</svg>
