<svg width="11" height="12" viewBox="0 0 11 12" fill="none" xmlns="http://www.w3.org/2000/svg">
<path d="M7.12053 8.13804L8.02579 7.24761L6.13604 5.35786V3.04028H4.86396V5.87818L7.12053 8.13804ZM5.5 11.1271C4.73452 11.1271 4.0177 10.9829 3.34957 10.6947C2.68152 10.4064 2.1004 10.0151 1.60623 9.52084C1.11197 9.02667 0.720704 8.44556 0.432422 7.77751C0.144141 7.10937 0 6.39256 0 5.62708C0 4.86159 0.144141 4.14478 0.432422 3.47664C0.720704 2.80859 1.11197 2.22748 1.60623 1.73331C2.1004 1.23905 2.68152 0.847778 3.34957 0.559497C4.0177 0.271215 4.73452 0.127075 5.5 0.127075C6.26549 0.127075 6.9823 0.271215 7.65043 0.559497C8.31849 0.847778 8.8996 1.23905 9.39377 1.73331C9.88803 2.22748 10.2793 2.80859 10.5676 3.47664C10.8559 4.14478 11 4.86159 11 5.62708C11 6.39256 10.8559 7.10937 10.5676 7.77751C10.2793 8.44556 9.88803 9.02667 9.39377 9.52084C8.8996 10.0151 8.31849 10.4064 7.65043 10.6947C6.9823 10.9829 6.26549 11.1271 5.5 11.1271Z" fill="#575658"/>
</svg>
