<svg width="14" height="12" viewBox="0 0 14 12" fill="none" xmlns="http://www.w3.org/2000/svg">
<path d="M0 11.1271V9.04031C0 8.62764 0.104192 8.24834 0.312577 7.90241C0.521063 7.55659 0.798042 7.29265 1.14351 7.11059C1.79315 6.77875 2.45578 6.52842 3.13143 6.35961C3.80707 6.19069 4.49327 6.10623 5.19002 6.10623C5.8978 6.10623 6.58961 6.18917 7.26545 6.35504C7.9413 6.52101 8.59828 6.76987 9.23638 7.1016C9.58185 7.28282 9.85883 7.54555 10.0673 7.8898C10.2757 8.23404 10.3799 8.61739 10.3799 9.03984V11.1271H0ZM11.7336 11.1271V8.94082C11.7336 8.45457 11.6116 7.98377 11.3675 7.52842C11.1233 7.07296 10.7631 6.64825 10.2869 6.25429C10.7436 6.32923 11.1784 6.43844 11.5913 6.58192C12.0042 6.72551 12.398 6.89874 12.7726 7.1016C13.163 7.31183 13.4651 7.57929 13.679 7.90399C13.893 8.22868 14 8.58323 14 8.96763V11.1271H11.7336ZM5.19002 5.47555C4.47062 5.47555 3.85827 5.21519 3.35297 4.69446C2.84766 4.17362 2.59501 3.54257 2.59501 2.80132C2.59501 2.06006 2.84766 1.42906 3.35297 0.908329C3.85827 0.387493 4.47062 0.127075 5.19002 0.127075C5.90932 0.127075 6.52162 0.387493 7.02693 0.908329C7.53223 1.42906 7.78488 2.06006 7.78488 2.80132C7.78488 3.54257 7.53223 4.17362 7.02693 4.69446C6.52162 5.21519 5.90932 5.47555 5.19002 5.47555ZM11.7336 2.80132C11.7336 3.53669 11.4797 4.16621 10.9718 4.68989C10.4639 5.21366 9.85327 5.47555 9.13999 5.47555C9.02116 5.47555 8.87791 5.46094 8.71022 5.43172C8.54264 5.4025 8.39122 5.36618 8.25597 5.32277C8.54289 4.97443 8.76173 4.58388 8.91249 4.15113C9.06324 3.71827 9.13862 3.26881 9.13862 2.80273C9.13862 2.33656 9.06324 1.88662 8.91249 1.45292C8.76173 1.01922 8.54289 0.628255 8.25597 0.280015C8.40448 0.221467 8.55013 0.181366 8.69293 0.159713C8.83573 0.137955 8.98297 0.127075 9.13464 0.127075C9.84935 0.127075 10.4612 0.388912 10.9702 0.912587C11.4791 1.43626 11.7336 2.06584 11.7336 2.80132Z" fill="#AFADB0"/>
</svg>
