<svg width="12" height="12" viewBox="0 0 12 12" fill="none" xmlns="http://www.w3.org/2000/svg">
<path d="M6 8.6936C5.25477 8.6936 4.61953 8.43098 4.09428 7.90572C3.56902 7.38047 3.3064 6.74523 3.3064 6C3.3064 5.25477 3.56902 4.61953 4.09428 4.09428C4.61953 3.56902 5.25477 3.3064 6 3.3064C6.74523 3.3064 7.38047 3.56902 7.90572 4.09428C8.43098 4.61953 8.6936 5.25477 8.6936 6C8.6936 6.74523 8.43098 7.38047 7.90572 7.90572C7.38047 8.43098 6.74523 8.6936 6 8.6936ZM2.30303 6.61279H0V5.38721H2.30303V6.61279ZM12 6.61279H9.69697V5.38721H12V6.61279ZM5.38721 2.30303V0H6.61279V2.30303H5.38721ZM5.38721 12V9.69697H6.61279V12H5.38721ZM2.97993 3.81993L1.51987 2.4105L2.38734 1.5064L3.78976 2.94976L2.97993 3.81993ZM9.61266 10.4936L8.19677 9.03677L9.01684 8.18653L10.4801 9.58949L9.61266 10.4936ZM8.18653 2.98317L9.58949 1.51986L10.4936 2.38734L9.05023 3.78976L8.18653 2.98317ZM1.5064 9.61266L2.96323 8.19677L3.81347 9.01684L2.4105 10.4801L1.5064 9.61266Z" fill="#373638"/>
</svg>
