<svg width="11" height="12" viewBox="0 0 11 12" fill="none" xmlns="http://www.w3.org/2000/svg">
<path d="M2.81073 1.94065C2.56173 1.94065 2.35007 2.029 2.17577 2.20571C2.00146 2.38241 1.91431 2.59698 1.91431 2.84941C1.91431 3.10184 2.00146 3.31641 2.17577 3.49311C2.35007 3.66982 2.56173 3.75817 2.81073 3.75817C3.05974 3.75817 3.27139 3.66982 3.4457 3.49311C3.62 3.31641 3.70716 3.10184 3.70716 2.84941C3.70716 2.59698 3.62 2.38241 3.4457 2.20571C3.27139 2.029 3.05974 1.94065 2.81073 1.94065ZM2.81073 8.24547C2.56173 8.24547 2.35007 8.33382 2.17577 8.51052C2.00146 8.68722 1.91431 8.90179 1.91431 9.15422C1.91431 9.40666 2.00146 9.62122 2.17577 9.79793C2.35007 9.97463 2.56173 10.063 2.81073 10.063C3.05974 10.063 3.27139 9.97463 3.4457 9.79793C3.62 9.62122 3.70716 9.40666 3.70716 9.15422C3.70716 8.90179 3.62 8.68722 3.4457 8.51052C3.27139 8.33382 3.05974 8.24547 2.81073 8.24547ZM0.679787 0H10.3202C10.5128 0 10.6743 0.0671469 10.8046 0.201441C10.9349 0.335634 11 0.500625 11 0.696412V4.98802C11 5.18946 10.9349 5.35829 10.8046 5.4945C10.6743 5.63082 10.5128 5.69897 10.3202 5.69897H0.679787C0.487156 5.69897 0.3257 5.63082 0.19542 5.4945C0.06514 5.35829 0 5.18946 0 4.98802V0.696412C0 0.500625 0.06514 0.335634 0.19542 0.201441C0.3257 0.0671469 0.487156 0 0.679787 0ZM0.679787 6.30481H10.3202C10.5128 6.30481 10.6743 6.37292 10.8046 6.50913C10.9349 6.64534 11 6.81417 11 7.01561V11.3072C11 11.5035 10.9349 11.6681 10.8046 11.8008C10.6743 11.9336 10.5128 12 10.3202 12H0.679787C0.487156 12 0.3257 11.9336 0.19542 11.8008C0.06514 11.6681 0 11.5035 0 11.3072V7.01561C0 6.81417 0.06514 6.64534 0.19542 6.50913C0.3257 6.37292 0.487156 6.30481 0.679787 6.30481Z" fill="#373638"/>
</svg>
