<svg width="13" height="11" viewBox="0 0 13 11" fill="none" xmlns="http://www.w3.org/2000/svg">
<path d="M11.8912 0.626953C11.8957 0.626953 11.9016 0.626953 11.9075 0.626953C12.0617 0.626953 12.2048 0.67518 12.3222 0.75828L12.32 0.756796C12.4056 0.831734 12.4631 0.937092 12.4771 1.05581V1.05803C12.4919 1.14855 12.5 1.25242 12.5 1.35852C12.5 1.40675 12.4985 1.45424 12.4948 1.50172V1.49504C12.3288 3.25275 11.6086 7.5153 11.2427 9.48298C11.0877 10.3162 10.783 10.5952 10.4878 10.6219C9.84659 10.682 9.35959 10.196 8.73829 9.78644C7.76577 9.14464 7.21605 8.74547 6.2723 8.12C5.18098 7.39807 5.88861 6.99964 6.5099 6.35117C6.67297 6.18052 9.49978 3.59479 9.55513 3.36033C9.55808 3.34623 9.55955 3.33065 9.55955 3.31433C9.55955 3.25646 9.53815 3.20378 9.50347 3.16371C9.4651 3.13848 9.41714 3.12439 9.36697 3.12439C9.33376 3.12439 9.30203 3.13107 9.27252 3.14219C9.17512 3.16445 7.62311 4.19602 4.61355 6.23839C4.2852 6.49882 3.87051 6.66353 3.41893 6.68282H3.4145C2.77476 6.60492 2.19405 6.46172 1.64285 6.25768L1.69746 6.27549C1.00533 6.04845 0.455606 5.92899 0.502831 5.54466C0.527919 5.34482 0.801918 5.14029 1.32483 4.93106C4.54591 3.51985 6.69388 2.58968 7.76872 2.14055C8.95449 1.50766 10.3292 0.986803 11.7747 0.649211L11.8912 0.626953Z" fill="#939195"/>
</svg>
