<svg width="13" height="15" viewBox="0 0 13 15" fill="none" xmlns="http://www.w3.org/2000/svg">
<path d="M4.52062 10.3352C4.04069 10.3352 3.63503 10.1738 3.30365 9.85097C2.97227 9.52815 2.80658 9.13297 2.80658 8.66544C2.80658 8.1979 2.97227 7.80272 3.30365 7.4799C3.63503 7.15708 4.04069 6.99567 4.52062 6.99567C5.00055 6.99567 5.40621 7.15708 5.73759 7.4799C6.06898 7.80272 6.23467 8.1979 6.23467 8.66544C6.23467 9.13297 6.06898 9.52815 5.73759 9.85097C5.40621 10.1738 5.00055 10.3352 4.52062 10.3352ZM1.81689 14.2542C1.31067 14.2542 0.881305 14.0824 0.528783 13.739C0.176261 13.3956 0 12.9773 0 12.4842V3.35992C0 2.86678 0.176261 2.4485 0.528783 2.10509C0.881305 1.76167 1.31067 1.58996 1.81689 1.58996H2.38629V0.25415H3.98035V1.58996H9.01965V0.25415H10.6137V1.58996H11.1831C11.6893 1.58996 12.1187 1.76167 12.4712 2.10509C12.8237 2.4485 13 2.86678 13 3.35992V12.4842C13 12.9773 12.8237 13.3956 12.4712 13.739C12.1187 14.0824 11.6893 14.2542 11.1831 14.2542H1.81689ZM1.81689 12.4842H11.1831V5.91834H1.81689V12.4842Z" fill="#373638"/>
</svg>
