<svg width="14" height="19" viewBox="0 0 14 19" fill="none" xmlns="http://www.w3.org/2000/svg">
<path d="M7 12.8539C5.99375 12.8539 5.05312 13.0114 4.17812 13.3264C3.30312 13.6414 2.49375 14.0839 1.75 14.6539V16.4539H12.25V14.6539C11.5062 14.0839 10.6969 13.6414 9.82187 13.3264C8.94687 13.0114 8.00625 12.8539 7 12.8539ZM1.75 18.2539C1.26875 18.2539 0.856771 18.0777 0.514062 17.7252C0.171354 17.3727 0 16.9489 0 16.4539V2.05391C0 1.55891 0.171354 1.13516 0.514062 0.782656C0.856771 0.430156 1.26875 0.253906 1.75 0.253906H12.25C12.7312 0.253906 13.1432 0.430156 13.4859 0.782656C13.8286 1.13516 14 1.55891 14 2.05391V16.4539C14 16.9489 13.8286 17.3727 13.4859 17.7252C13.1432 18.0777 12.7312 18.2539 12.25 18.2539H1.75ZM7 11.0539C7.84583 11.0539 8.56771 10.7464 9.16562 10.1314C9.76354 9.51641 10.0625 8.77391 10.0625 7.90391C10.0625 7.03391 9.76354 6.29141 9.16562 5.67641C8.56771 5.06141 7.84583 4.75391 7 4.75391C6.15417 4.75391 5.43229 5.06141 4.83437 5.67641C4.23646 6.29141 3.9375 7.03391 3.9375 7.90391C3.9375 8.77391 4.23646 9.51641 4.83437 10.1314C5.43229 10.7464 6.15417 11.0539 7 11.0539Z" fill="#373638"/>
</svg>
