<svg width="10" height="11" viewBox="0 0 10 11" fill="none" xmlns="http://www.w3.org/2000/svg">
<path d="M1.39761 10.2542C1.00821 10.2542 0.677927 10.1186 0.406756 9.84739C0.135585 9.57622 0 9.24594 0 8.85654V1.65176C0 1.26236 0.135585 0.932077 0.406756 0.660906C0.677927 0.389735 1.00821 0.25415 1.39761 0.25415H5V1.65176H1.39761V8.85654H8.60239V5.25415H10V8.85654C10 9.24594 9.86442 9.57622 9.59324 9.84739C9.32207 10.1186 8.99179 10.2542 8.60239 10.2542H1.39761ZM4.01798 7.20552L3.04863 6.23617L7.63291 1.65176H6.0548V0.25415H10V4.19935H8.60239V2.62125L4.01798 7.20552Z" fill="#9E4BE0"/>
</svg>
