<?xml version="1.0" standalone="no"?>
<!DOCTYPE svg PUBLIC "-//W3C//DTD SVG 20010904//EN"
 "http://www.w3.org/TR/2001/REC-SVG-20010904/DTD/svg10.dtd">
<svg version="1.0" xmlns="http://www.w3.org/2000/svg"
 width="700.000000pt" height="700.000000pt" viewBox="0 0 700.000000 700.000000"
 preserveAspectRatio="xMidYMid meet">
<metadata>
Created by potrace 1.14, written by Peter Selinger 2001-2017
</metadata>
<g transform="translate(0.000000,700.000000) scale(0.100000,-0.100000)"
fill="#000000" stroke="none">
<path d="M3280 6994 c-19 -2 -84 -9 -145 -14 -410 -40 -846 -169 -1225 -362
-343 -176 -628 -387 -908 -672 -561 -572 -883 -1252 -984 -2081 -16 -133 -16
-590 0 -730 74 -625 284 -1178 634 -1669 211 -295 519 -603 813 -813 491 -351
1038 -559 1670 -635 135 -16 590 -16 735 1 705 80 1348 354 1880 802 134 113
345 325 452 455 433 526 696 1153 780 1859 16 139 16 595 0 730 -103 852 -447
1557 -1043 2141 -555 542 -1249 874 -2029 970 -117 15 -553 27 -630 18z m460
-1829 l0 -305 770 0 770 0 0 -230 0 -230 -283 0 -282 0 -59 -147 c-178 -452
-441 -894 -715 -1202 l-75 -84 30 -24 c105 -85 339 -230 513 -318 235 -118
563 -238 821 -301 63 -16 117 -30 119 -31 2 -1 -21 -29 -50 -61 -63 -67 -177
-225 -239 -329 -24 -40 -45 -73 -48 -73 -20 0 -310 90 -416 129 -410 152 -715
319 -1030 565 l-93 73 -77 -59 c-215 -165 -524 -349 -785 -468 -242 -110 -652
-261 -659 -242 -10 30 -121 211 -192 314 -47 67 -86 124 -88 128 -1 4 26 15
61 23 348 88 846 299 1139 484 132 83 238 160 238 172 0 4 -32 46 -70 92 -257
308 -495 725 -685 1199 l-62 155 -282 3 -281 2 0 230 0 230 765 0 765 0 0 305
0 305 240 0 240 0 0 -305z"/>
<path d="M2831 4348 c78 -199 214 -452 349 -652 80 -119 284 -375 312 -392 13
-9 64 46 171 181 170 217 343 517 456 793 l50 122 -679 0 -680 0 21 -52z"/>
</g>
</svg>
