<svg width="116" height="19" viewBox="0 0 116 19" fill="none" xmlns="http://www.w3.org/2000/svg">
<path d="M0.608 0.607075H3.248V14.5031C3.248 15.1431 3.344 15.5511 3.536 15.7271C3.728 15.9031 3.968 15.9911 4.256 15.9911C4.576 15.9911 4.872 15.9591 5.144 15.8951C5.432 15.8311 5.68 15.7511 5.888 15.6551L6.272 17.7431C5.888 17.9031 5.432 18.0391 4.904 18.1511C4.376 18.2631 3.904 18.3191 3.488 18.3191C2.592 18.3191 1.888 18.0711 1.376 17.5751C0.864 17.0631 0.608 16.3591 0.608 15.4631V0.607075ZM13.4908 18.3671C12.5148 18.3671 11.6268 18.1991 10.8268 17.8631C10.0428 17.5111 9.36275 17.0391 8.78675 16.4471C8.21075 15.8391 7.76275 15.1511 7.44275 14.3831C7.13875 13.5991 6.98675 12.7671 6.98675 11.8871C6.98675 10.7031 7.25875 9.62307 7.80275 8.64707C8.34675 7.65507 9.10675 6.86307 10.0828 6.27107C11.0588 5.66307 12.2028 5.35908 13.5148 5.35908C14.8268 5.35908 15.9548 5.66307 16.8988 6.27107C17.8588 6.86307 18.6028 7.64707 19.1308 8.62307C19.6588 9.59907 19.9228 10.6471 19.9228 11.7671C19.9228 11.9591 19.9148 12.1431 19.8988 12.3191C19.8828 12.4791 19.8668 12.6151 19.8508 12.7271H9.79475C9.84275 13.4631 10.0428 14.1111 10.3948 14.6711C10.7628 15.2151 11.2268 15.6471 11.7868 15.9671C12.3468 16.2711 12.9468 16.4231 13.5868 16.4231C14.2908 16.4231 14.9548 16.2471 15.5788 15.8951C16.2188 15.5431 16.6508 15.0791 16.8748 14.5031L19.1308 15.1511C18.8588 15.7591 18.4428 16.3111 17.8828 16.8071C17.3388 17.2871 16.6908 17.6711 15.9388 17.9591C15.1868 18.2311 14.3708 18.3671 13.4908 18.3671ZM9.72275 10.9751H17.3068C17.2588 10.2551 17.0508 9.62307 16.6828 9.07908C16.3308 8.51907 15.8748 8.08707 15.3148 7.78307C14.7708 7.46307 14.1628 7.30307 13.4908 7.30307C12.8348 7.30307 12.2268 7.46307 11.6668 7.78307C11.1228 8.08707 10.6748 8.51907 10.3228 9.07908C9.97075 9.62307 9.77075 10.2551 9.72275 10.9751ZM21.1642 14.4551C21.1642 13.6551 21.3882 12.9591 21.8362 12.3671C22.3002 11.7591 22.9322 11.2951 23.7322 10.9751C24.5322 10.6391 25.4602 10.4711 26.5162 10.4711C27.0762 10.4711 27.6442 10.5111 28.2202 10.5911C28.8122 10.6711 29.3322 10.7991 29.7802 10.9751V10.1831C29.7802 9.30307 29.5162 8.61507 28.9882 8.11907C28.4602 7.62307 27.7002 7.37507 26.7082 7.37507C26.0042 7.37507 25.3402 7.50307 24.7162 7.75907C24.0922 7.99907 23.4282 8.34307 22.7242 8.79107L21.8362 7.01507C22.6682 6.45507 23.5002 6.03907 24.3322 5.76707C25.1802 5.49507 26.0682 5.35908 26.9962 5.35908C28.6762 5.35908 29.9962 5.80708 30.9562 6.70307C31.9322 7.58307 32.4202 8.83907 32.4202 10.4711V15.1511C32.4202 15.4551 32.4682 15.6711 32.5642 15.7991C32.6762 15.9271 32.8602 15.9991 33.1162 16.0151V18.1271C32.8762 18.1751 32.6602 18.2071 32.4682 18.2231C32.2762 18.2391 32.1162 18.2471 31.9882 18.2471C31.4282 18.2471 31.0042 18.1111 30.7162 17.8391C30.4282 17.5671 30.2602 17.2471 30.2122 16.8791L30.1402 16.1591C29.5962 16.8631 28.9002 17.4071 28.0522 17.7911C27.2042 18.1751 26.3482 18.3671 25.4842 18.3671C24.6522 18.3671 23.9082 18.1991 23.2522 17.8631C22.5962 17.5111 22.0842 17.0391 21.7162 16.4471C21.3482 15.8551 21.1642 15.1911 21.1642 14.4551ZM29.1562 15.2231C29.3482 15.0151 29.5002 14.8071 29.6122 14.5991C29.7242 14.3911 29.7802 14.2071 29.7802 14.0471V12.6071C29.3322 12.4311 28.8602 12.3031 28.3642 12.2231C27.8682 12.1271 27.3802 12.0791 26.9002 12.0791C25.9402 12.0791 25.1562 12.2711 24.5482 12.6551C23.9562 13.0391 23.6602 13.5671 23.6602 14.2391C23.6602 14.6071 23.7562 14.9591 23.9482 15.2951C24.1562 15.6311 24.4442 15.9031 24.8122 16.1111C25.1962 16.3191 25.6682 16.4231 26.2282 16.4231C26.8042 16.4231 27.3562 16.3111 27.8842 16.0871C28.4122 15.8631 28.8362 15.5751 29.1562 15.2231ZM42.6791 7.85507C41.6551 7.87107 40.7431 8.10307 39.9431 8.55107C39.1591 8.99907 38.5991 9.63107 38.2631 10.4471V18.1271H35.6231V5.57508H38.0711V8.38307C38.5031 7.51907 39.0711 6.83107 39.7751 6.31907C40.4791 5.79107 41.2231 5.50307 42.0071 5.45508C42.1671 5.45508 42.2951 5.45508 42.3911 5.45508C42.5031 5.45508 42.5991 5.46308 42.6791 5.47907V7.85507ZM55.8556 18.1271H53.2156V11.0951C53.2156 9.92707 53.0236 9.07107 52.6396 8.52708C52.2716 7.98307 51.7196 7.71107 50.9836 7.71107C50.4716 7.71107 49.9596 7.83907 49.4476 8.09507C48.9516 8.35107 48.5036 8.70307 48.1036 9.15107C47.7036 9.58308 47.4156 10.0871 47.2396 10.6631V18.1271H44.5996V5.57508H46.9996V8.09507C47.3196 7.53507 47.7356 7.05507 48.2476 6.65507C48.7756 6.23907 49.3676 5.91908 50.0236 5.69508C50.6796 5.47108 51.3756 5.35908 52.1116 5.35908C52.8636 5.35908 53.4796 5.49507 53.9596 5.76707C54.4556 6.03907 54.8396 6.41507 55.1116 6.89507C55.3996 7.35907 55.5916 7.90307 55.6876 8.52708C55.7996 9.13507 55.8556 9.78307 55.8556 10.4711V18.1271Z" fill="#19171A"/>
<path d="M78.1199 18.1271H75.4799V11.0951C75.4799 9.92707 75.2879 9.07107 74.9039 8.52708C74.5199 7.98307 73.9599 7.71107 73.2239 7.71107C72.4879 7.71107 71.7999 7.99107 71.1599 8.55107C70.5359 9.09507 70.0959 9.80708 69.8399 10.6871V18.1271H67.1999V11.0951C67.1999 9.92707 67.0079 9.07107 66.6239 8.52708C66.2399 7.98307 65.6879 7.71107 64.9679 7.71107C64.2319 7.71107 63.5439 7.98307 62.9039 8.52708C62.2799 9.07107 61.8319 9.78307 61.5599 10.6631V18.1271H58.9199V5.57508H61.3199V8.09507C61.8159 7.21507 62.4639 6.54307 63.2639 6.07907C64.0799 5.59907 65.0079 5.35908 66.0479 5.35908C67.0879 5.35908 67.9039 5.63107 68.4959 6.17507C69.1039 6.71907 69.4799 7.39907 69.6239 8.21507C70.1679 7.28707 70.8319 6.58307 71.6159 6.10307C72.4159 5.60707 73.3279 5.35908 74.3519 5.35908C75.0879 5.35908 75.7039 5.49507 76.1999 5.76707C76.6959 6.03907 77.0799 6.41507 77.3519 6.89507C77.6239 7.35907 77.8159 7.90307 77.9279 8.52708C78.0559 9.13507 78.1199 9.78307 78.1199 10.4711V18.1271ZM80.2501 14.4551C80.2501 13.6551 80.4741 12.9591 80.9221 12.3671C81.3861 11.7591 82.0181 11.2951 82.8181 10.9751C83.6181 10.6391 84.5461 10.4711 85.6021 10.4711C86.1621 10.4711 86.7301 10.5111 87.3061 10.5911C87.8981 10.6711 88.4181 10.7991 88.8661 10.9751V10.1831C88.8661 9.30307 88.6021 8.61507 88.0741 8.11907C87.5461 7.62307 86.7861 7.37507 85.7941 7.37507C85.0901 7.37507 84.4261 7.50307 83.8021 7.75907C83.1781 7.99907 82.5141 8.34307 81.8101 8.79107L80.9221 7.01507C81.7541 6.45507 82.5861 6.03907 83.4181 5.76707C84.2661 5.49507 85.1541 5.35908 86.0821 5.35908C87.7621 5.35908 89.0821 5.80708 90.0421 6.70307C91.0181 7.58307 91.5061 8.83907 91.5061 10.4711V15.1511C91.5061 15.4551 91.5541 15.6711 91.6501 15.7991C91.7621 15.9271 91.9461 15.9991 92.2021 16.0151V18.1271C91.9621 18.1751 91.7461 18.2071 91.5541 18.2231C91.3621 18.2391 91.2021 18.2471 91.0741 18.2471C90.5141 18.2471 90.0901 18.1111 89.8021 17.8391C89.5141 17.5671 89.3461 17.2471 89.2981 16.8791L89.2261 16.1591C88.6821 16.8631 87.9861 17.4071 87.1381 17.7911C86.2901 18.1751 85.4341 18.3671 84.5701 18.3671C83.7381 18.3671 82.9941 18.1991 82.3381 17.8631C81.6821 17.5111 81.1701 17.0391 80.8021 16.4471C80.4341 15.8551 80.2501 15.1911 80.2501 14.4551ZM88.2421 15.2231C88.4341 15.0151 88.5861 14.8071 88.6981 14.5991C88.8101 14.3911 88.8661 14.2071 88.8661 14.0471V12.6071C88.4181 12.4311 87.9461 12.3031 87.4501 12.2231C86.9541 12.1271 86.4661 12.0791 85.9861 12.0791C85.0261 12.0791 84.2421 12.2711 83.6341 12.6551C83.0421 13.0391 82.7461 13.5671 82.7461 14.2391C82.7461 14.6071 82.8421 14.9591 83.0341 15.2951C83.2421 15.6311 83.5301 15.9031 83.8981 16.1111C84.2821 16.3191 84.7541 16.4231 85.3141 16.4231C85.8901 16.4231 86.4421 16.3111 86.9701 16.0871C87.4981 15.8631 87.9221 15.5751 88.2421 15.2231ZM101.599 17.4791C101.375 17.5911 101.095 17.7111 100.759 17.8391C100.423 17.9671 100.039 18.0791 99.6073 18.1751C99.1913 18.2711 98.7593 18.3191 98.3113 18.3191C97.7673 18.3191 97.2633 18.2231 96.7993 18.0311C96.3353 17.8391 95.9593 17.5351 95.6713 17.1191C95.3993 16.6871 95.2633 16.1351 95.2633 15.4631V7.61507H93.6073V5.57508H95.2633V1.44707H97.9033V5.57508H100.639V7.61507H97.9033V14.6231C97.9353 15.0551 98.0713 15.3751 98.3113 15.5831C98.5673 15.7911 98.8793 15.8951 99.2473 15.8951C99.6153 15.8951 99.9673 15.8311 100.303 15.7031C100.639 15.5751 100.887 15.4711 101.047 15.3911L101.599 17.4791ZM108.952 18.3671C107.976 18.3671 107.088 18.1991 106.288 17.8631C105.504 17.5111 104.824 17.0391 104.248 16.4471C103.672 15.8391 103.224 15.1511 102.904 14.3831C102.6 13.5991 102.448 12.7671 102.448 11.8871C102.448 10.7031 102.72 9.62307 103.264 8.64707C103.808 7.65507 104.568 6.86307 105.544 6.27107C106.52 5.66307 107.664 5.35908 108.976 5.35908C110.288 5.35908 111.416 5.66307 112.36 6.27107C113.32 6.86307 114.064 7.64707 114.592 8.62307C115.12 9.59907 115.384 10.6471 115.384 11.7671C115.384 11.9591 115.376 12.1431 115.36 12.3191C115.344 12.4791 115.328 12.6151 115.312 12.7271H105.256C105.304 13.4631 105.504 14.1111 105.856 14.6711C106.224 15.2151 106.688 15.6471 107.248 15.9671C107.808 16.2711 108.408 16.4231 109.048 16.4231C109.752 16.4231 110.416 16.2471 111.04 15.8951C111.68 15.5431 112.112 15.0791 112.336 14.5031L114.592 15.1511C114.32 15.7591 113.904 16.3111 113.344 16.8071C112.8 17.2871 112.152 17.6711 111.4 17.9591C110.648 18.2311 109.832 18.3671 108.952 18.3671ZM105.184 10.9751H112.768C112.72 10.2551 112.512 9.62307 112.144 9.07908C111.792 8.51907 111.336 8.08707 110.776 7.78307C110.232 7.46307 109.624 7.30307 108.952 7.30307C108.296 7.30307 107.688 7.46307 107.128 7.78307C106.584 8.08707 106.136 8.51907 105.784 9.07908C105.432 9.62307 105.232 10.2551 105.184 10.9751Z" fill="#7A28BA"/>
</svg>
